<mxfile modified="2023-07-19T06:42:39.553Z" host="app.diagrams.net" agent="Mozilla/5.0 (Windows NT 10.0; Win64; x64) AppleWebKit/537.36 (KHTML, like Gecko) Chrome/114.0.0.0 Safari/537.36" etag="bl_2m_BpO3LNPc7q6lFy" version="21.6.1" type="device">
  <diagram id="Ht1M8jgEwFfnCIfOTk4-" name="Page-1">
    <mxGraphModel dx="1434" dy="1607" grid="1" gridSize="10" guides="1" tooltips="1" connect="1" arrows="1" fold="1" page="1" pageScale="1" pageWidth="1169" pageHeight="827" math="0" shadow="0">
      <root>
        <mxCell id="0" />
        <mxCell id="1" parent="0" />
        <mxCell id="UEzPUAAOIrF-is8g5C7q-175" value="AWS Cloud" style="points=[[0,0],[0.25,0],[0.5,0],[0.75,0],[1,0],[1,0.25],[1,0.5],[1,0.75],[1,1],[0.75,1],[0.5,1],[0.25,1],[0,1],[0,0.75],[0,0.5],[0,0.25]];outlineConnect=0;gradientColor=none;html=1;whiteSpace=wrap;fontSize=12;fontStyle=0;shape=mxgraph.aws4.group;grIcon=mxgraph.aws4.group_aws_cloud_alt;strokeColor=#232F3E;fillColor=none;verticalAlign=top;align=left;spacingLeft=30;fontColor=#232F3E;dashed=0;labelBackgroundColor=#ffffff;container=1;pointerEvents=0;collapsible=0;recursiveResize=0;" parent="1" vertex="1">
          <mxGeometry x="260" y="-630" width="660" height="410" as="geometry" />
        </mxCell>
        <mxCell id="vPH7iVMBBxgiJ8fdCjyB-13" value="" style="edgeStyle=orthogonalEdgeStyle;html=1;endArrow=open;elbow=vertical;startArrow=none;endFill=0;strokeColor=#545B64;rounded=0;entryX=0;entryY=0.5;entryDx=0;entryDy=0;entryPerimeter=0;" edge="1" parent="UEzPUAAOIrF-is8g5C7q-175" source="vPH7iVMBBxgiJ8fdCjyB-2" target="vPH7iVMBBxgiJ8fdCjyB-9">
          <mxGeometry width="100" relative="1" as="geometry">
            <mxPoint x="171" y="222" as="sourcePoint" />
            <mxPoint x="271" y="222" as="targetPoint" />
          </mxGeometry>
        </mxCell>
        <mxCell id="vPH7iVMBBxgiJ8fdCjyB-20" value="" style="group" vertex="1" connectable="0" parent="UEzPUAAOIrF-is8g5C7q-175">
          <mxGeometry x="206.5" y="40" width="85" height="113" as="geometry" />
        </mxCell>
        <mxCell id="vPH7iVMBBxgiJ8fdCjyB-9" value="" style="sketch=0;points=[[0,0,0],[0.25,0,0],[0.5,0,0],[0.75,0,0],[1,0,0],[0,1,0],[0.25,1,0],[0.5,1,0],[0.75,1,0],[1,1,0],[0,0.25,0],[0,0.5,0],[0,0.75,0],[1,0.25,0],[1,0.5,0],[1,0.75,0]];outlineConnect=0;fontColor=#232F3E;gradientColor=#945DF2;gradientDirection=north;fillColor=#5A30B5;strokeColor=#ffffff;dashed=0;verticalLabelPosition=bottom;verticalAlign=top;align=center;html=1;fontSize=12;fontStyle=0;aspect=fixed;shape=mxgraph.aws4.resourceIcon;resIcon=mxgraph.aws4.kinesis_data_streams;" vertex="1" parent="vPH7iVMBBxgiJ8fdCjyB-20">
          <mxGeometry x="3.5" width="78" height="78" as="geometry" />
        </mxCell>
        <mxCell id="vPH7iVMBBxgiJ8fdCjyB-14" value="AWS Kinesis Data Streams" style="text;html=1;strokeColor=none;fillColor=none;align=center;verticalAlign=middle;whiteSpace=wrap;rounded=0;" vertex="1" parent="vPH7iVMBBxgiJ8fdCjyB-20">
          <mxGeometry y="83" width="85" height="30" as="geometry" />
        </mxCell>
        <mxCell id="vPH7iVMBBxgiJ8fdCjyB-21" value="" style="group" vertex="1" connectable="0" parent="UEzPUAAOIrF-is8g5C7q-175">
          <mxGeometry x="50" y="40" width="78" height="120" as="geometry" />
        </mxCell>
        <mxCell id="vPH7iVMBBxgiJ8fdCjyB-2" value="" style="sketch=0;points=[[0,0,0],[0.25,0,0],[0.5,0,0],[0.75,0,0],[1,0,0],[0,1,0],[0.25,1,0],[0.5,1,0],[0.75,1,0],[1,1,0],[0,0.25,0],[0,0.5,0],[0,0.75,0],[1,0.25,0],[1,0.5,0],[1,0.75,0]];outlineConnect=0;fontColor=#232F3E;gradientColor=#60A337;gradientDirection=north;fillColor=#277116;strokeColor=#ffffff;dashed=0;verticalLabelPosition=bottom;verticalAlign=top;align=center;html=1;fontSize=12;fontStyle=0;aspect=fixed;shape=mxgraph.aws4.resourceIcon;resIcon=mxgraph.aws4.iot_core;" vertex="1" parent="vPH7iVMBBxgiJ8fdCjyB-21">
          <mxGeometry width="78" height="78" as="geometry" />
        </mxCell>
        <mxCell id="vPH7iVMBBxgiJ8fdCjyB-5" value="AWS IoT Core" style="text;html=1;strokeColor=none;fillColor=none;align=center;verticalAlign=middle;whiteSpace=wrap;rounded=0;" vertex="1" parent="vPH7iVMBBxgiJ8fdCjyB-21">
          <mxGeometry x="9" y="90" width="60" height="30" as="geometry" />
        </mxCell>
        <mxCell id="vPH7iVMBBxgiJ8fdCjyB-19" value="" style="group" vertex="1" connectable="0" parent="UEzPUAAOIrF-is8g5C7q-175">
          <mxGeometry x="370" y="40" width="81.5" height="114" as="geometry" />
        </mxCell>
        <mxCell id="vPH7iVMBBxgiJ8fdCjyB-15" value="" style="sketch=0;points=[[0,0,0],[0.25,0,0],[0.5,0,0],[0.75,0,0],[1,0,0],[0,1,0],[0.25,1,0],[0.5,1,0],[0.75,1,0],[1,1,0],[0,0.25,0],[0,0.5,0],[0,0.75,0],[1,0.25,0],[1,0.5,0],[1,0.75,0]];outlineConnect=0;fontColor=#232F3E;gradientColor=#945DF2;gradientDirection=north;fillColor=#5A30B5;strokeColor=#ffffff;dashed=0;verticalLabelPosition=bottom;verticalAlign=top;align=center;html=1;fontSize=12;fontStyle=0;aspect=fixed;shape=mxgraph.aws4.resourceIcon;resIcon=mxgraph.aws4.kinesis_data_analytics;" vertex="1" parent="vPH7iVMBBxgiJ8fdCjyB-19">
          <mxGeometry width="78" height="78" as="geometry" />
        </mxCell>
        <mxCell id="vPH7iVMBBxgiJ8fdCjyB-16" value="AWS Kinesis Data Analytics" style="text;html=1;strokeColor=none;fillColor=none;align=center;verticalAlign=middle;whiteSpace=wrap;rounded=0;" vertex="1" parent="vPH7iVMBBxgiJ8fdCjyB-19">
          <mxGeometry x="0.5" y="84" width="81" height="30" as="geometry" />
        </mxCell>
        <mxCell id="vPH7iVMBBxgiJ8fdCjyB-24" value="" style="edgeStyle=orthogonalEdgeStyle;html=1;endArrow=open;elbow=vertical;startArrow=none;endFill=0;strokeColor=#545B64;rounded=0;entryX=0;entryY=0.5;entryDx=0;entryDy=0;entryPerimeter=0;" edge="1" parent="UEzPUAAOIrF-is8g5C7q-175" source="vPH7iVMBBxgiJ8fdCjyB-9" target="vPH7iVMBBxgiJ8fdCjyB-15">
          <mxGeometry width="100" relative="1" as="geometry">
            <mxPoint x="400" y="140" as="sourcePoint" />
            <mxPoint x="500" y="140" as="targetPoint" />
          </mxGeometry>
        </mxCell>
        <mxCell id="vPH7iVMBBxgiJ8fdCjyB-25" value="" style="sketch=0;points=[[0,0,0],[0.25,0,0],[0.5,0,0],[0.75,0,0],[1,0,0],[0,1,0],[0.25,1,0],[0.5,1,0],[0.75,1,0],[1,1,0],[0,0.25,0],[0,0.5,0],[0,0.75,0],[1,0.25,0],[1,0.5,0],[1,0.75,0]];outlineConnect=0;fontColor=#232F3E;gradientColor=#4AB29A;gradientDirection=north;fillColor=#116D5B;strokeColor=#ffffff;dashed=0;verticalLabelPosition=bottom;verticalAlign=top;align=center;html=1;fontSize=12;fontStyle=0;aspect=fixed;shape=mxgraph.aws4.resourceIcon;resIcon=mxgraph.aws4.comprehend;" vertex="1" parent="UEzPUAAOIrF-is8g5C7q-175">
          <mxGeometry x="210" y="210" width="78" height="78" as="geometry" />
        </mxCell>
        <mxCell id="vPH7iVMBBxgiJ8fdCjyB-26" value="Amazon Comprehend" style="text;html=1;strokeColor=none;fillColor=none;align=center;verticalAlign=middle;whiteSpace=wrap;rounded=0;" vertex="1" parent="UEzPUAAOIrF-is8g5C7q-175">
          <mxGeometry x="219" y="288" width="60" height="30" as="geometry" />
        </mxCell>
        <mxCell id="vPH7iVMBBxgiJ8fdCjyB-28" value="" style="edgeStyle=orthogonalEdgeStyle;html=1;endArrow=open;elbow=vertical;startArrow=none;endFill=0;strokeColor=#545B64;rounded=0;exitX=1;exitY=0.5;exitDx=0;exitDy=0;exitPerimeter=0;entryX=0.5;entryY=1;entryDx=0;entryDy=0;" edge="1" parent="UEzPUAAOIrF-is8g5C7q-175" source="vPH7iVMBBxgiJ8fdCjyB-25" target="vPH7iVMBBxgiJ8fdCjyB-16">
          <mxGeometry width="100" relative="1" as="geometry">
            <mxPoint x="315" y="260" as="sourcePoint" />
            <mxPoint x="415" y="260" as="targetPoint" />
          </mxGeometry>
        </mxCell>
        <mxCell id="vPH7iVMBBxgiJ8fdCjyB-29" value="" style="sketch=0;points=[[0,0,0],[0.25,0,0],[0.5,0,0],[0.75,0,0],[1,0,0],[0,1,0],[0.25,1,0],[0.5,1,0],[0.75,1,0],[1,1,0],[0,0.25,0],[0,0.5,0],[0,0.75,0],[1,0.25,0],[1,0.5,0],[1,0.75,0]];outlineConnect=0;fontColor=#232F3E;gradientColor=#4D72F3;gradientDirection=north;fillColor=#3334B9;strokeColor=#ffffff;dashed=0;verticalLabelPosition=bottom;verticalAlign=top;align=center;html=1;fontSize=12;fontStyle=0;aspect=fixed;shape=mxgraph.aws4.resourceIcon;resIcon=mxgraph.aws4.dynamodb;" vertex="1" parent="UEzPUAAOIrF-is8g5C7q-175">
          <mxGeometry x="540" y="210" width="78" height="78" as="geometry" />
        </mxCell>
        <mxCell id="vPH7iVMBBxgiJ8fdCjyB-30" value="" style="sketch=0;points=[[0,0,0],[0.25,0,0],[0.5,0,0],[0.75,0,0],[1,0,0],[0,1,0],[0.25,1,0],[0.5,1,0],[0.75,1,0],[1,1,0],[0,0.25,0],[0,0.5,0],[0,0.75,0],[1,0.25,0],[1,0.5,0],[1,0.75,0]];outlineConnect=0;fontColor=#232F3E;gradientColor=#F78E04;gradientDirection=north;fillColor=#D05C17;strokeColor=#ffffff;dashed=0;verticalLabelPosition=bottom;verticalAlign=top;align=center;html=1;fontSize=12;fontStyle=0;aspect=fixed;shape=mxgraph.aws4.resourceIcon;resIcon=mxgraph.aws4.lambda;" vertex="1" parent="UEzPUAAOIrF-is8g5C7q-175">
          <mxGeometry x="540" y="40" width="78" height="78" as="geometry" />
        </mxCell>
        <mxCell id="vPH7iVMBBxgiJ8fdCjyB-31" value="" style="edgeStyle=orthogonalEdgeStyle;html=1;endArrow=open;elbow=vertical;startArrow=none;endFill=0;strokeColor=#545B64;rounded=0;exitX=1;exitY=0.5;exitDx=0;exitDy=0;exitPerimeter=0;entryX=0;entryY=0.5;entryDx=0;entryDy=0;entryPerimeter=0;" edge="1" parent="UEzPUAAOIrF-is8g5C7q-175" source="vPH7iVMBBxgiJ8fdCjyB-15" target="vPH7iVMBBxgiJ8fdCjyB-30">
          <mxGeometry width="100" relative="1" as="geometry">
            <mxPoint x="470" y="80" as="sourcePoint" />
            <mxPoint x="570" y="80" as="targetPoint" />
          </mxGeometry>
        </mxCell>
        <mxCell id="vPH7iVMBBxgiJ8fdCjyB-32" value="" style="edgeStyle=orthogonalEdgeStyle;html=1;endArrow=open;elbow=vertical;startArrow=none;endFill=0;strokeColor=#545B64;rounded=0;exitX=1;exitY=0.75;exitDx=0;exitDy=0;exitPerimeter=0;entryX=0;entryY=0.5;entryDx=0;entryDy=0;entryPerimeter=0;" edge="1" parent="UEzPUAAOIrF-is8g5C7q-175" source="vPH7iVMBBxgiJ8fdCjyB-15" target="vPH7iVMBBxgiJ8fdCjyB-29">
          <mxGeometry width="100" relative="1" as="geometry">
            <mxPoint x="458" y="89" as="sourcePoint" />
            <mxPoint x="550" y="89" as="targetPoint" />
          </mxGeometry>
        </mxCell>
        <mxCell id="vPH7iVMBBxgiJ8fdCjyB-33" value="Amazon DynamoDB" style="text;html=1;strokeColor=none;fillColor=none;align=center;verticalAlign=middle;whiteSpace=wrap;rounded=0;" vertex="1" parent="UEzPUAAOIrF-is8g5C7q-175">
          <mxGeometry x="549" y="300" width="60" height="30" as="geometry" />
        </mxCell>
        <mxCell id="vPH7iVMBBxgiJ8fdCjyB-35" value="" style="sketch=0;points=[[0,0,0],[0.25,0,0],[0.5,0,0],[0.75,0,0],[1,0,0],[0,1,0],[0.25,1,0],[0.5,1,0],[0.75,1,0],[1,1,0],[0,0.25,0],[0,0.5,0],[0,0.75,0],[1,0.25,0],[1,0.5,0],[1,0.75,0]];outlineConnect=0;fontColor=#232F3E;gradientColor=#945DF2;gradientDirection=north;fillColor=#5A30B5;strokeColor=#ffffff;dashed=0;verticalLabelPosition=bottom;verticalAlign=top;align=center;html=1;fontSize=12;fontStyle=0;aspect=fixed;shape=mxgraph.aws4.resourceIcon;resIcon=mxgraph.aws4.quicksight;" vertex="1" parent="UEzPUAAOIrF-is8g5C7q-175">
          <mxGeometry x="371" y="288" width="78" height="78" as="geometry" />
        </mxCell>
        <mxCell id="vPH7iVMBBxgiJ8fdCjyB-36" value="Amazon QuickSight" style="text;html=1;strokeColor=none;fillColor=none;align=center;verticalAlign=middle;whiteSpace=wrap;rounded=0;" vertex="1" parent="UEzPUAAOIrF-is8g5C7q-175">
          <mxGeometry x="380" y="370" width="60" height="30" as="geometry" />
        </mxCell>
        <mxCell id="vPH7iVMBBxgiJ8fdCjyB-37" value="" style="edgeStyle=orthogonalEdgeStyle;html=1;endArrow=none;elbow=vertical;startArrow=open;startFill=0;strokeColor=#545B64;rounded=0;exitX=1;exitY=0.5;exitDx=0;exitDy=0;exitPerimeter=0;entryX=0;entryY=0.75;entryDx=0;entryDy=0;entryPerimeter=0;" edge="1" parent="UEzPUAAOIrF-is8g5C7q-175" source="vPH7iVMBBxgiJ8fdCjyB-35" target="vPH7iVMBBxgiJ8fdCjyB-29">
          <mxGeometry width="100" relative="1" as="geometry">
            <mxPoint x="170" y="290" as="sourcePoint" />
            <mxPoint x="270" y="290" as="targetPoint" />
          </mxGeometry>
        </mxCell>
        <mxCell id="vPH7iVMBBxgiJ8fdCjyB-6" value="" style="shape=link;html=1;rounded=0;entryX=0;entryY=0.5;entryDx=0;entryDy=0;entryPerimeter=0;exitX=1;exitY=0.5;exitDx=0;exitDy=0;" edge="1" parent="1" source="vPH7iVMBBxgiJ8fdCjyB-3" target="vPH7iVMBBxgiJ8fdCjyB-2">
          <mxGeometry width="100" relative="1" as="geometry">
            <mxPoint x="140" y="-570" as="sourcePoint" />
            <mxPoint x="240" y="-570" as="targetPoint" />
          </mxGeometry>
        </mxCell>
        <mxCell id="vPH7iVMBBxgiJ8fdCjyB-8" value="Atlantic Superstore" style="text;html=1;strokeColor=none;fillColor=none;align=center;verticalAlign=middle;whiteSpace=wrap;rounded=0;fontStyle=1" vertex="1" parent="1">
          <mxGeometry x="80" y="-507" width="118" height="30" as="geometry" />
        </mxCell>
        <mxCell id="vPH7iVMBBxgiJ8fdCjyB-22" value="" style="endArrow=classic;html=1;rounded=0;exitX=1;exitY=0.75;exitDx=0;exitDy=0;entryX=0;entryY=0.5;entryDx=0;entryDy=0;entryPerimeter=0;" edge="1" parent="1" source="vPH7iVMBBxgiJ8fdCjyB-3" target="vPH7iVMBBxgiJ8fdCjyB-25">
          <mxGeometry relative="1" as="geometry">
            <mxPoint x="431" y="-388" as="sourcePoint" />
            <mxPoint x="470" y="-383" as="targetPoint" />
            <Array as="points">
              <mxPoint x="224" y="-530" />
              <mxPoint x="224" y="-380" />
            </Array>
          </mxGeometry>
        </mxCell>
        <mxCell id="vPH7iVMBBxgiJ8fdCjyB-23" value="Customer Feedback,&lt;br&gt;Sales data" style="edgeLabel;resizable=0;html=1;align=center;verticalAlign=middle;" connectable="0" vertex="1" parent="vPH7iVMBBxgiJ8fdCjyB-22">
          <mxGeometry relative="1" as="geometry">
            <mxPoint x="-34" y="-50" as="offset" />
          </mxGeometry>
        </mxCell>
        <mxCell id="vPH7iVMBBxgiJ8fdCjyB-34" value="Amazon Lambda" style="text;html=1;strokeColor=none;fillColor=none;align=center;verticalAlign=middle;whiteSpace=wrap;rounded=0;" vertex="1" parent="1">
          <mxGeometry x="810" y="-496" width="60" height="30" as="geometry" />
        </mxCell>
        <mxCell id="vPH7iVMBBxgiJ8fdCjyB-38" value="" style="group" vertex="1" connectable="0" parent="1">
          <mxGeometry x="80" y="-597" width="105" height="90" as="geometry" />
        </mxCell>
        <mxCell id="vPH7iVMBBxgiJ8fdCjyB-3" value="" style="rounded=1;whiteSpace=wrap;html=1;" vertex="1" parent="vPH7iVMBBxgiJ8fdCjyB-38">
          <mxGeometry width="105" height="90" as="geometry" />
        </mxCell>
        <mxCell id="vPH7iVMBBxgiJ8fdCjyB-1" value="" style="sketch=0;points=[[0,0,0],[0.25,0,0],[0.5,0,0],[0.75,0,0],[1,0,0],[0,1,0],[0.25,1,0],[0.5,1,0],[0.75,1,0],[1,1,0],[0,0.25,0],[0,0.5,0],[0,0.75,0],[1,0.25,0],[1,0.5,0],[1,0.75,0]];outlineConnect=0;fontColor=#232F3E;gradientColor=#60A337;gradientDirection=north;fillColor=#277116;strokeColor=#ffffff;dashed=0;verticalLabelPosition=bottom;verticalAlign=top;align=center;html=1;fontSize=12;fontStyle=0;aspect=fixed;shape=mxgraph.aws4.resourceIcon;resIcon=mxgraph.aws4.internet_of_things;" vertex="1" parent="vPH7iVMBBxgiJ8fdCjyB-38">
          <mxGeometry x="46.65117647058824" y="10" width="24.705882352941178" height="24.705882352941178" as="geometry" />
        </mxCell>
        <mxCell id="vPH7iVMBBxgiJ8fdCjyB-4" value="IoT Devices" style="text;html=1;strokeColor=none;fillColor=none;align=center;verticalAlign=middle;whiteSpace=wrap;rounded=0;" vertex="1" parent="vPH7iVMBBxgiJ8fdCjyB-38">
          <mxGeometry x="24.590000000000003" y="37" width="68.82" height="30" as="geometry" />
        </mxCell>
      </root>
    </mxGraphModel>
  </diagram>
</mxfile>
